<svg xmlns="http://www.w3.org/2000/svg" viewBox="0 0 32 32"><defs><style>.cls-1{fill:#27251f;}</style></defs><title>Layer 1</title><g id="Layer_2" data-name="Layer 2"><g id="all-about-appointments"><path class="cls-1" d="M30.21,3.56H24.89V1.78a1.78,1.78,0,0,0-3.56,0V3.56H10.67V1.78a1.78,1.78,0,1,0-3.56,0V3.56H1.77A1.77,1.77,0,0,0,0,5.33V30.22A1.78,1.78,0,0,0,1.77,32H30.21A1.79,1.79,0,0,0,32,30.22V5.33A1.78,1.78,0,0,0,30.21,3.56ZM7.11,28.44H3.56V24.89H7.11Zm0-5.33H3.56V19.56H7.11Zm0-5.33H3.56V14.22H7.11Zm5.33,10.66H8.89V24.89h3.55Zm0-5.33H8.89V19.56h3.55Zm0-5.33H8.89V14.22h3.55Zm5.34,10.66H14.22V24.89h3.56Zm0-5.33H14.22V19.56h3.56Zm0-5.33H14.22V14.22h3.56Zm5.33,10.66H19.56V24.89h3.55Zm-2.68-7.11a.89.89,0,1,1,.89.89A.89.89,0,0,1,20.43,21.33Zm2.68-3.55H19.56V14.22h3.55Zm5.33,10.66H24.89V24.89h3.55Zm0-5.33H24.89V19.56h3.55Zm0-5.33H24.89V14.22h3.55Z"/></g></g></svg>