<svg xmlns="http://www.w3.org/2000/svg" viewBox="0 0 32 26.18"><defs><style>.cls-1{fill:#27251f;}</style></defs><title>advice-from-patients</title><g id="Layer_2" data-name="Layer 2"><g id="advice-from-patients"><path class="cls-1" d="M23.27,7.27V1.45A1.45,1.45,0,0,0,21.82,0H10.18A1.45,1.45,0,0,0,8.73,1.45V7.27a1.45,1.45,0,0,0,1.45,1.46h1.46v2.91l2.91-2.91h7.27A1.45,1.45,0,0,0,23.27,7.27Z"/><path class="cls-1" d="M28.88,15.79A4.16,4.16,0,1,0,24.73,20,4.15,4.15,0,0,0,28.88,15.79Z"/><path class="cls-1" d="M24.73,20c-4,0-7.28,2.79-7.28,6.23H32C32,22.74,28.74,20,24.73,20Z"/><path class="cls-1" d="M11.43,15.79A4.16,4.16,0,1,0,7.27,20,4.15,4.15,0,0,0,11.43,15.79Z"/><path class="cls-1" d="M7.27,20C3.26,20,0,22.74,0,26.18H14.55C14.55,22.74,11.29,20,7.27,20Z"/></g></g></svg>