<svg id="Layer_1" data-name="Layer 1" xmlns="http://www.w3.org/2000/svg" viewBox="0 0 44 36"><defs><style>.cls-1{fill:#1b459c;}</style></defs><title>connect</title><path class="cls-1" d="M82,67V59a2,2,0,0,0-2-2H64a2,2,0,0,0-2,2v8a2,2,0,0,0,2,2h2v4l4-4H80A2,2,0,0,0,82,67Z" transform="translate(-50 -57)"/><circle class="cls-1" cx="34" cy="21.71" r="5.71"/><path class="cls-1" d="M74,93c0-4.73,4.48-8.57,10-8.57S94,88.27,94,93Z" transform="translate(-50 -57)"/><circle class="cls-1" cx="10" cy="21.71" r="5.71"/><path class="cls-1" d="M50,93c0-4.73,4.48-8.57,10-8.57S70,88.27,70,93Z" transform="translate(-50 -57)"/></svg>