<svg xmlns="http://www.w3.org/2000/svg" viewBox="0 0 247.77 227.48"><defs><style>.cls-1{fill:none;stroke:#bbbcbf;stroke-miterlimit:10;stroke-width:2px;}.cls-2{fill:#003da5;}.cls-3{fill:#00b0b9;}.cls-4{fill:#2b4995;}.cls-5{fill:#fff;}</style></defs><title>do-i-need-a-referral</title><g id="Layer_2" data-name="Layer 2"><g id="do-i-need-a-referral"><circle class="cls-1" cx="95.27" cy="95.27" r="94.27"/><circle class="cls-2" cx="141.61" cy="115.47" r="106.16"/><circle class="cls-3" cx="201.29" cy="68.34" r="30.45"/><circle class="cls-2" cx="203.36" cy="62.04" r="11.24"/><path class="cls-4" d="M196.61,77.77a6.75,6.75,0,1,0,13.49,0V74.32a22.39,22.39,0,0,0-13.49,0Z"/><path class="cls-2" d="M212.35,75.17v2.6a9,9,0,0,1-7.87,8.92v7.13a2.25,2.25,0,1,1-2.25,0V86.69a9,9,0,0,1-7.87-8.92v-2.6c-6.65,2.94-11.24,9-11.24,16.09v9h40.47v-9C223.59,84.21,219,78.11,212.35,75.17Z"/><path class="cls-5" d="M130.22,157.94l-8.64,34.55L113,157.94c-39.42,3.83-70.1,33.49-70.1,69.54H200.31C200.31,191.43,169.63,161.77,130.22,157.94Z"/><path class="cls-5" d="M121.58,78.77a17.49,17.49,0,0,1,17.5,17.5h22.58a43.72,43.72,0,0,0-80.15,0h22.58A17.49,17.49,0,0,1,121.58,78.77Z"/><path class="cls-5" d="M121.58,157.5A43.75,43.75,0,0,0,164.44,105H136.65a17.36,17.36,0,0,1-30.14,0H78.72a43.79,43.79,0,0,0,42.86,52.48Z"/><circle class="cls-5" cx="121.58" cy="96.27" r="4.37"/></g></g></svg>