<svg xmlns="http://www.w3.org/2000/svg" viewBox="0 0 243.61 218.45"><defs><style>.cls-1,.cls-5{fill:none;}.cls-1{stroke:#bbbcbf;stroke-miterlimit:10;stroke-width:2px;}.cls-2{fill:#003da5;}.cls-3{fill:#fff;}.cls-4{fill:#00b0b9;}.cls-6{fill:#2b4995;}</style></defs><title>am-i-covered</title><g id="Layer_2" data-name="Layer 2"><g id="am-i-covered"><path class="cls-1" d="M58.91,36.19A94.29,94.29,0,1,0,132.09,210"/><circle class="cls-2" cx="137.45" cy="106.16" r="106.16"/><path class="cls-3" d="M96.62,30.49V30.2a6.51,6.51,0,0,0-13,0v.29a78.18,78.18,0,0,0-71.67,77.89,32.57,32.57,0,0,1,52.12,0A32.65,32.65,0,0,1,83.6,96.05V154a13,13,0,0,1-26.06,0v-6.51a6.52,6.52,0,1,0-13,0V154a26.06,26.06,0,1,0,52.11,0V96.05a32.65,32.65,0,0,1,19.55,12.33,32.57,32.57,0,0,1,52.11,0A78.17,78.17,0,0,0,96.62,30.49Z"/><path class="cls-4" d="M196.72,129v-6h-22a2,2,0,0,0-2,2v36a2,2,0,0,0,2,2h28a2,2,0,0,0,2-2V131h-6A2,2,0,0,1,196.72,129Zm-10.08,21.15L181,144.49l2.83-2.83,2.83,2.83,8.48-8.49,2.83,2.83Z"/><path class="cls-4" d="M202.72,123h-6l8,8v-6A2,2,0,0,0,202.72,123Z"/><path class="cls-4" d="M162.45,122.47h-28a2,2,0,0,0-2,2v36a2,2,0,0,0,2,2h28a2,2,0,0,0,2-2v-36A2,2,0,0,0,162.45,122.47Zm-20,30h-4v-4h4Zm0-8h-4v-4h4Zm0-8h-4v-4h4Zm16,16h-12v-4h12Zm0-8h-12v-4h12Zm0-8h-12v-4h12Z"/><path class="cls-5" d="M236.61,145v-.87l-.33.87Z"/><path class="cls-6" d="M230.61,141v-6h-4v6h-6v4h6v6h4v-6h5.67l.33-.87V141Z"/><path class="cls-4" d="M230.61,145v6h-4v-6h-6v-4h6v-6h4v6h6v3.13A105.79,105.79,0,0,0,242.28,123H214.61a2,2,0,0,0-2,2v36a2,2,0,0,0,2,2h12.51a105.76,105.76,0,0,0,9.16-18Z"/></g></g></svg>