<svg xmlns="http://www.w3.org/2000/svg" viewBox="0 0 247.37 212.32"><defs><style>.cls-1{fill:none;stroke:#bbbcbf;stroke-miterlimit:10;stroke-width:2px;}.cls-2{fill:#003da5;}.cls-3{fill:#fff;}.cls-4{fill:#00b0b9;}</style></defs><title>how-much-will-care-cost</title><g id="Layer_2" data-name="Layer 2"><g id="how-much-will-care-cost"><path class="cls-1" d="M91.79,14A94.29,94.29,0,1,0,99.3,202.4"/><circle class="cls-2" cx="141.22" cy="106.16" r="106.16"/><path class="cls-3" d="M176.18,40.92a7.34,7.34,0,0,0,7.53-7.13,7.51,7.51,0,0,0-15,0,7.32,7.32,0,0,0,7.48,7.13Z"/><path class="cls-3" d="M175.1,86.13v24.66c0,4.49-7.09,4.49-7.08,0V86.3h-9.55l10.18-33.5h-1.57l-5.91,18.89a3.16,3.16,0,1,1-6-2l6.53-20.51A9.89,9.89,0,0,1,171,42.72h10.33a10.24,10.24,0,0,1,9.33,6.49l6.53,20.47c1.33,4.42-4.58,6.25-6,2L185.24,52.8h-1.71l10.23,33.5h-9.51v24.53c0,4.45-7.06,4.43-7.08,0V86.13Z"/><path class="cls-3" d="M214.49,57.19a5.56,5.56,0,1,0-5.82-5.55,5.7,5.7,0,0,0,5.82,5.55Z"/><path class="cls-3" d="M213.65,92.36v19.18c0,3.49-5.52,3.49-5.51,0V92.49h-7.43l7.92-26.06H207.4l-4.59,14.69a2.46,2.46,0,1,1-4.66-1.53l5.08-16a7.7,7.7,0,0,1,7.19-5h8a8,8,0,0,1,7.26,5l5.08,15.92a2.46,2.46,0,1,1-4.66,1.53l-4.6-14.66H220.2l8,26.06h-7.4v19.08c0,3.46-5.49,3.44-5.5,0V92.36Z"/><path class="cls-4" d="M40.94,109.05V167a10.56,10.56,0,0,0,10.53,10.53,5.27,5.27,0,1,0,10.54,0v-79H51.47A10.57,10.57,0,0,0,40.94,109.05Z"/><path class="cls-4" d="M146.27,98.51H135.74v79a5.27,5.27,0,1,0,10.53,0A10.57,10.57,0,0,0,156.81,167V109.05A10.57,10.57,0,0,0,146.27,98.51Z"/><path class="cls-4" d="M119.94,82.71a5.27,5.27,0,0,0-5.27-5.26H83.07a5.26,5.26,0,0,0-5.26,5.26v15.8H67.27v79h63.2v-79H119.94ZM88.34,88h21.07V98.51H88.34Z"/></g></g></svg>